<?xml version="1.0" encoding="UTF-8" standalone="no"?>
<svg 
    role="img" 
    xmlns="http://www.w3.org/2000/svg" 
    width="1000mm"
    height="1000mm"
    viewBox="0 0 1000 1000"
    style="max-width:1.6em; height: auto;">
    
    <path 
        id="path" 
        style="opacity:1;vector-effect:none;fill:#000000;fill-opacity:1;"
        d=" M 500 46C 514 46 528 53 540 65C 540 65 950 475 950 475C 960 485 960 490 950 500C 950 500 915 535 915 535C 905 545 895 545 885 535C 885 535 515 165 515 165C 505 155 495 155 485 165C 485 165 115 535 115 535C 105 545 95 545 85 535C 85 535 50 500 50 500C 40 490 40 485 50 475C 50 475 460 65 460 65C 472 53 486 46 500 46C 500 46 500 46 500 46M 500 207C 505 207 510 210 515 215C 515 215 835 535 835 535C 845 545 850 550 850 565C 850 565 850 850 850 850C 850 885 835 900 800 900C 800 900 600 900 600 900C 590 900 575 885 575 875C 575 875 575 725 575 725C 575 710 565 700 550 700C 550 700 450 700 450 700C 435 700 425 710 425 725C 425 725 425 875 425 875C 425 885 410 900 400 900C 400 900 200 900 200 900C 165 900 150 885 150 850C 150 850 150 565 150 565C 150 550 155 545 165 535C 165 535 485 215 485 215C 490 210 495 207 500 207C 500 207 500 207 500 207"
        transform="">
    </path>    
</svg>