<?xml version="1.0" encoding="UTF-8" standalone="no"?>
<svg 
    role="img" 
    xmlns="http://www.w3.org/2000/svg" 
    width="1000mm"
    height="1000mm"
    viewBox="0 0 1000 1000"
    style="max-width:1.6em; height: auto;">
    
    <path 
        id="path" 
        style="opacity:1;vector-effect:none;fill:#000000;fill-opacity:1;"
        d=" M 559 263C 616 263 663 309 663 366C 663 366 663 634 663 634C 663 691 616 738 559 738C 559 738 216 738 216 738C 159 738 113 691 113 634C 113 634 113 366 113 366C 113 309 159 263 216 263C 216 263 559 263 559 263M 887 325C 887 325 887 675 887 675C 887 689 879 703 866 709C 853 715 838 713 827 704C 827 704 702 604 702 604C 693 597 688 586 688 575C 688 575 688 425 688 425C 688 414 693 403 702 396C 702 396 827 296 827 296C 833 291 841 288 849 288C 849 288 850 288 850 288C 871 287 887 304 887 325C 887 325 887 325 887 325"
        transform="">
    </path>    
</svg>