<?xml version="1.0" encoding="UTF-8" standalone="no"?>
<svg 
    role="img" 
    xmlns="http://www.w3.org/2000/svg" 
    width="1000mm"
    height="1000mm"
    viewBox="0 0 1000 1000"
    style="max-width:1.6em; height: auto;">
    
    <path 
        id="path" 
        style="opacity:1;vector-effect:none;fill:#000000;fill-opacity:1;"
        d=" M 850 75C 864 75 875 86 875 100C 875 100 875 800 875 800C 875 814 864 825 850 825C 850 825 150 825 150 825C 136 825 125 814 125 800C 125 800 125 100 125 100C 125 86 136 75 150 75C 150 75 850 75 850 75M 225 250C 225 250 225 550 225 550C 225 591 259 625 300 625C 300 625 700 625 700 625C 741 625 775 591 775 550C 775 550 775 250 775 250C 775 209 741 175 700 175C 700 175 300 175 300 175C 259 175 225 209 225 250C 225 250 225 250 225 250M 262 700C 262 714 273 725 287 725C 301 725 312 714 312 700C 312 686 301 674 287 675C 273 675 262 686 262 700C 262 700 262 700 262 700M 475 700C 475 714 486 725 500 725C 500 725 725 725 725 725C 739 725 750 714 750 700C 750 686 739 675 725 675C 725 675 500 675 500 675C 486 675 475 686 475 700C 475 700 475 700 475 700M 775 850C 789 850 800 861 800 875C 800 875 800 925 800 925C 800 939 789 950 775 950C 775 950 225 950 225 950C 211 950 200 939 200 925C 200 925 200 875 200 875C 200 861 211 850 225 850C 225 850 775 850 775 850"
        transform="">
    </path>    
</svg>